<svg width="124" height="24" viewBox="0 0 124 24" fill="none" xmlns="http://www.w3.org/2000/svg">
<g clip-path="url(#clip0)">
<path d="M0 23.6211V18.7579H1.51579V5.30527H0V0.442108H20.0842V9.41053H13.4526V5.30527H9.85263V10.0421H12.5053V13.4526H9.85263V18.7579H13.4526V14.0211H20.1474V23.6211H0Z" fill="#231F20"/>
<path d="M22.7368 23.6211V18.7579H24.2526V5.30527H22.7368V0.442108H35.3052V5.30527H32.5894V18.6947H35.2421V15.9789H41.1789V23.6211H22.7368Z" fill="#231F20"/>
<path d="M43.6421 23.6211V18.7579H45.1579V5.30527H43.6421V0.442108H63.7895V9.41053H57.0947V5.30527H53.4947V10.0421H56.1474V13.4526H53.4947V18.7579H57.0947V14.0211H63.7895V23.6211H43.6421Z" fill="#231F20"/>
<path d="M69.2842 21.1579C67.2631 19.2632 66.2526 16.2316 66.2526 12C66.2526 3.97895 70.1684 0 77.9368 0C79.8316 0 81.6 0.252632 83.1789 0.694737C84.821 1.13684 86.021 1.64211 86.7789 2.21053V9.66316H79.6421V7.51579C79.6421 6.75789 79.4526 6.18947 79.1368 5.87368C78.821 5.49474 78.3158 5.36842 77.621 5.36842C76.9263 5.36842 76.421 5.55789 76.1053 5.87368C75.7895 6.25263 75.6 6.75789 75.6 7.51579V16.4842C75.6 17.2421 75.7895 17.8105 76.1053 18.1263C76.421 18.5053 76.9263 18.6316 77.621 18.6316C78.3158 18.6316 78.821 18.4421 79.1368 18.1263C79.4526 17.7474 79.6421 17.2421 79.6421 16.4842V14.0842H86.7789V21.7895C85.9579 22.3579 84.7579 22.8632 83.1789 23.3053C81.6 23.7474 79.8316 24 78 24C74.2105 24 71.3053 23.0526 69.2842 21.1579Z" fill="#231F20"/>
<path d="M111.6 7.64211H106.484V5.30527H104.589V18.6947H106.674V23.5579H94.1684V18.6947H96.2526V5.30527H94.3579V7.64211H89.2421V0.442108H111.663V7.64211H111.6Z" fill="#231F20"/>
<path d="M119.495 2.21054C119.811 2.21054 120 2.2737 120.253 2.40001C120.442 2.52633 120.632 2.7158 120.758 2.90528C120.884 3.15791 120.947 3.41054 120.947 3.72633V4.04212H118.611C118.611 4.42107 118.737 4.73686 118.926 4.92633C119.116 5.1158 119.368 5.24212 119.684 5.24212C119.874 5.24212 120.063 5.24212 120.253 5.17896C120.442 5.1158 120.568 5.05265 120.758 4.98949V5.49475C120.568 5.55791 120.442 5.62107 120.253 5.68423C120.063 5.74738 119.874 5.74738 119.621 5.74738C119.305 5.74738 118.989 5.68423 118.737 5.55791C118.484 5.43159 118.295 5.24212 118.168 4.98949C118.042 4.73686 117.979 4.42107 117.979 4.04212C117.979 3.66317 118.042 3.34738 118.168 3.09475C118.295 2.84212 118.484 2.65265 118.674 2.46317C118.926 2.2737 119.179 2.21054 119.495 2.21054ZM119.495 2.65265C119.242 2.65265 118.989 2.7158 118.863 2.90528C118.737 3.09475 118.611 3.28422 118.611 3.60001H120.316C120.316 3.28422 120.253 3.09475 120.126 2.90528C119.937 2.7158 119.747 2.65265 119.495 2.65265Z" fill="#231F20"/>
<path d="M119.432 8.08421C117.221 8.08421 115.389 6.25263 115.389 4.04211C115.389 1.83158 117.221 0 119.432 0C121.642 0 123.474 1.83158 123.474 4.04211C123.474 6.25263 121.642 8.08421 119.432 8.08421ZM119.432 0.568421C117.537 0.568421 116.021 2.08421 116.021 3.97895C116.021 5.87368 117.537 7.38947 119.432 7.38947C121.326 7.38947 122.842 5.87368 122.842 3.97895C122.842 2.08421 121.326 0.568421 119.432 0.568421Z" fill="#231F20"/>
</g>
<defs>
<clipPath id="clip0">
<rect width="123.474" height="24" fill="white"/>
</clipPath>
</defs>
</svg>
