<svg width="40" height="40" viewBox="0 0 40 40" fill="none" xmlns="http://www.w3.org/2000/svg">
<path fill-rule="evenodd" clip-rule="evenodd" d="M40 20C40 31.0465 31.0465 40 20 40C8.95349 40 0 31.0465 0 20C0 8.95349 8.95349 0 20 0C31.0465 0 40 8.95349 40 20Z" fill="white"/>
<path fill-rule="evenodd" clip-rule="evenodd" d="M16.871 26.0361C16.871 24.165 16.8604 22.294 16.8816 20.4229C16.8816 20.1058 16.797 20.0107 16.4799 20.0213C15.8985 20.0424 15.3171 20.0213 14.7251 20.0318C14.4926 20.0424 14.3974 19.9684 14.408 19.7253C14.4186 18.5625 14.4186 17.3891 14.408 16.2263C14.408 16.0043 14.4714 15.9303 14.704 15.9303C15.296 15.9409 15.8985 15.9092 16.4905 15.9409C16.8393 15.9621 16.9027 15.8352 16.9027 15.5181C16.8816 14.6301 16.8816 13.7422 16.9027 12.8542C16.9239 11.7654 17.2199 10.7506 17.8647 9.87326C18.6786 8.75276 19.8414 8.24536 21.1839 8.18193C22.5581 8.11851 23.9429 8.15022 25.3277 8.13965C25.518 8.13965 25.5814 8.20307 25.5814 8.39335C25.5708 9.57728 25.5708 10.7612 25.5814 11.9346C25.5814 12.146 25.518 12.2094 25.3065 12.2094C24.6406 12.1988 23.9746 12.1988 23.3192 12.2094C22.4313 12.2094 21.9027 12.664 21.8499 13.5413C21.8076 14.239 21.8393 14.9473 21.8182 15.6555C21.8076 15.9092 21.9662 15.8881 22.1247 15.8881C23.1289 15.8881 24.1437 15.8986 25.148 15.8775C25.444 15.8775 25.5391 15.9409 25.5074 16.2475C25.3805 17.4208 25.2748 18.5942 25.1691 19.7781C25.148 20.0424 25.0211 20.0952 24.7886 20.0952C23.9958 20.0847 23.1924 20.0847 22.3996 20.0952C21.8287 20.0952 21.8816 20.0107 21.8816 20.5921C21.8816 24.2602 21.871 27.9177 21.8922 31.5857C21.8922 31.9769 21.797 32.072 21.4165 32.0614C20.0528 32.0403 18.6786 32.0403 17.315 32.0614C16.9344 32.072 16.871 31.9346 16.871 31.5963C16.871 29.7253 16.871 27.8859 16.871 26.0361Z" fill="#333333"/>
</svg>
