<svg width="40" height="40" viewBox="0 0 40 40" fill="none" xmlns="http://www.w3.org/2000/svg">
<rect x="0.5" y="0.5" width="39" height="39" rx="4.5" fill="#333333" stroke="white"/>
<path d="M16.0675 14.3271C15.6493 14.3271 15.312 14.6644 15.312 15.0826V20.8836C15.312 21.3018 15.6493 21.6391 16.0675 21.6391C16.4857 21.6391 16.823 21.3018 16.823 20.8836V15.0826C16.823 14.6644 16.4857 14.3271 16.0675 14.3271Z" fill="white"/>
<path d="M22.9072 14.3271C22.489 14.3271 22.1517 14.6644 22.1517 15.0826V18.5497L19.4266 14.7993C19.2377 14.5295 18.887 14.4216 18.5767 14.5295C18.2664 14.6374 18.0505 14.9207 18.0505 15.2445V20.8836C18.0505 21.3018 18.3878 21.6391 18.806 21.6391C19.2242 21.6391 19.5615 21.3018 19.5615 20.8836V17.5784L22.2866 21.3288C22.435 21.5312 22.6644 21.6391 22.8937 21.6391C22.9747 21.6391 23.0556 21.6256 23.1231 21.5986C23.4333 21.4907 23.6492 21.2074 23.6492 20.8836V15.0826C23.6627 14.6644 23.3254 14.3271 22.9072 14.3271Z" fill="white"/>
<path d="M13.9493 20.1418H11.9392V15.0963C11.9392 14.6781 11.6019 14.3408 11.1837 14.3408C10.7655 14.3408 10.4282 14.6781 10.4282 15.0963V20.8973C10.4282 21.3155 10.7655 21.6528 11.1837 21.6528H13.9493C14.3675 21.6528 14.7048 21.3155 14.7048 20.8973C14.7048 20.4791 14.354 20.1418 13.9493 20.1418Z" fill="white"/>
<path d="M35.8044 0H4.18212C1.87521 0 0 1.87521 0 4.18212V35.8044C0 38.1113 1.87521 40 4.18212 40H35.8044C38.1113 40 40 38.1248 40 35.8044V4.18212C39.9865 1.87521 38.1113 0 35.8044 0ZM33.2546 25.8752C31.1906 28.4384 22.1383 34.5902 20.0202 35.8449C19.1568 36.3575 18.0641 35.7369 18.0641 34.7251V31.5953C13.0051 31.3929 3.95278 26.914 3.95278 18.199C3.95278 9.11973 13.032 4.70826 19.9663 4.70826C27.4671 4.70826 36.0067 9.68634 36.0067 18.118C36.0202 20.4924 35.3322 23.2985 33.2546 25.8752Z" fill="white"/>
<path d="M29.1805 20.0066H26.1855V18.617H28.5194C28.9376 18.617 29.2749 18.2798 29.2749 17.8616C29.2749 17.4433 28.9376 17.1061 28.5194 17.1061H26.1855V15.7165H29.059C29.4773 15.7165 29.8145 15.3793 29.8145 14.961C29.8145 14.5428 29.4773 14.2056 29.059 14.2056H25.43C25.0118 14.2056 24.6746 14.5428 24.6746 14.961V17.8616V20.7621C24.6746 21.1803 25.0118 21.5175 25.43 21.5175H29.1805C29.5987 21.5175 29.9359 21.1803 29.9359 20.7621C29.9359 20.3438 29.5987 20.0066 29.1805 20.0066Z" fill="white"/>
</svg>
